<svg width="849.492" height="480.71" style="position:absolute;left:-999999px;right:-999999px" viewBox="0 0 849.492 480.71"><path fill="currentColor" d="M381.94 150.07C392.6 146.7 404.1 143.15 417.64 143.77 430.22 144.08 430.07 152.33 435.35 156.28 443.45 162.39 442.46 170.16 451.61 176.09 456.44 181.98 470.68 179.28 481.35 178.37 501.01 175.12 520.62 168.1 542.47 170.77 552.27 173.4 556.4 179.32 560.89 184.38 567.19 190.48 565.85 197.42 565.96 203.98 564.99 209.67 553.54 213.74 542.88 215.54 532.46 216.45 521.86 216.97 512 218.9A487.09 487.09 0 0 1 430.86 218.35C417.5 218.09 411.74 214.05 412.15 208.23 410.62 200.77 413.5 193.26 412.55 185.83 404 181.3 389.27 181.14 377.74 178.98 365 178.22 352.04 178.88 339.19 178.46 311.91 178.37 286.4 186.1 258.88 183.58 249.77 180.28 252.93 172.15 256.57 167.44 266.31 160.33 284.52 158.07 300.7 155.66 305.09 153.84 308.73 153.18 315.86 151.5 326.26 150.5 336.92 150.18 347.5 150.07" data-mass="30"/><path d="M81.47 374.11C86.15 390.77 114.08 401.15 136.06 409.76 162.94 421.18 201.47 422.74 230.06 411.49 260.81 400.56 272.5 379.1 295.53 363.12 315.86 346.89 336.77 332.39 359.93 318.14 384.38 304.6 422.2 304.32 452.61 308.94 475.83 319.98 496.08 338.73 529.86 334.38 559.06 328.2 581.8 315.9 595.36 298.75 606.68 284.62 615.93 269.27 623.9 253.94 637.4 238.94 634 192.96 666.62 188.94 698.35 180 698.43 223.65 696.12 238.67 697.38 257.34 698.18 276.64 688.91 294.39 676.57 311.04 660.2 324.8 641.55 338.45 621.58 352.68 596.25 365.65 565.28 368.6 532.53 373.2 503.31 362.5 471.78 362.54 448.12 368.42 433.65 378.97 426.46 396.26 416.88 416.22 442.82 437.66 475.63 440.63 477.37 440.8 478.89 445.07 480.67 445.12 482.49 445.34 484.57 441.29 486.4 441.32 522.4 441.85 557.7 406.58 582.96 430.22 612.73 459.6 657.24 409.43 664.96 392.13 677.72 376.35 688.63 362.38 696.63 344.98 706.36 328.87 708.83 316.24 716.26 301.8 716.62 283.2 735.5 235.1 735.73 216.43 749.05 201.3 752.73 153.26 779.98 149.21 821.45 143.9 814.88 241.57 830.75 259.23 844.55 277.06 846.43 297.26 847.15 316.58 847.8 335.36 853.68 354.58 843.89 373.09 838.32 392.55 823.22 411.86 800.23 425.54 774.33 441.37 740.83 451.53 707.87 460.68 679.6 467.88 649.27 471.63 618.87 474.94 596.56 476 564.24 475.59 558.25 477.53 511.1 478.33 464.12 481.78 416.82 480.38 369.3 478.61 321.32 482.93 274.17 478.54 232.12 474.3 188.82 472.13 148.65 462.72 115.1 460.79 85.43 449.15 65.48 432.82 55.54 415.77 26.44 410.6 14.17 392.18-3.03 379.17 5.82 361.08.23 344.77-2.26 317.57 15.63 285.27 61.32 275.32"/><path d="M475.12 444.27H485.42V447.21H475.11z" data-kind="hole"/><path d="M479.23 416.61H482.13V446.37H479.24z"/><path d="M481 417.6C485 419.2 487.67 422.9 490.23 425.82 486.89 426.93 483.1 428.54 480.4 430.57 480.33 430.63 480.06 430.86 480.06 430.61M445.84 0A33.55 26.17 0 0 1 436.3 18.28L412.3 0Z"/></svg>