<?xml version="1.0" encoding="UTF-8" standalone="no"?>
<!-- Created with Inkscape (http://www.inkscape.org/) -->

<svg
   width="800"
   height="250"
   viewBox="0 0 800 250"
   version="1.1"
   id="svg5"
   sodipodi:docname="01.svg"
   inkscape:version="1.2.1 (9c6d41e, 2022-07-14)"
   inkscape:export-filename="01-out.svg"
   inkscape:export-xdpi="96"
   inkscape:export-ydpi="96"
   xmlns:inkscape="http://www.inkscape.org/namespaces/inkscape"
   xmlns:sodipodi="http://sodipodi.sourceforge.net/DTD/sodipodi-0.dtd"
   xmlns="http://www.w3.org/2000/svg"
   xmlns:svg="http://www.w3.org/2000/svg">
  <sodipodi:namedview
     id="namedview7"
     pagecolor="#ffffff"
     bordercolor="#000000"
     borderopacity="0.25"
     inkscape:showpageshadow="2"
     inkscape:pageopacity="0.0"
     inkscape:pagecheckerboard="0"
     inkscape:deskcolor="#d1d1d1"
     inkscape:document-units="px"
     showgrid="false"
     inkscape:zoom="1.1143775"
     inkscape:cx="279.97693"
     inkscape:cy="180.81843"
     inkscape:window-width="1280"
     inkscape:window-height="747"
     inkscape:window-x="0"
     inkscape:window-y="25"
     inkscape:window-maximized="0"
     inkscape:current-layer="svg5" />
  <defs
     id="defs2" />
  <path
     style="fill:#008a13;fill-opacity:1;stroke-width:10.5;paint-order:stroke fill markers"
     d="m 576.99438,95.999011 c 11.67651,-2.490937 30.12555,1.204732 31.28906,9.299979 3.05569,8.52668 8.70232,16.92383 8.41602,26.69981 3.87941,10.92998 -0.20326,27.65416 6.34064,35.69572 3.06588,4.08434 17.34852,19.74837 24.44122,19.48922 19.70753,11.9304 38.43339,-1.42785 48.08225,-18.79513 13.09783,-13.91168 40.61705,-18.58326 57.41244,-9.98477 12.97442,9.92216 21.7839,24.25034 32.85557,35.15158 9.83238,9.75357 29.29045,17.81812 39.83214,4.18256 11.97148,-12.97044 23.13426,-26.53752 37.33037,-37.16692 16.26606,-14.6109 40.95116,-24.97368 61.84542,-14.10501 16.37544,5.6739 21.98458,30.09468 38.90225,28.18909 19.50998,0.33998 44.51684,4.52295 57.57504,-13.75511 14.4064,-12.09975 7.4281,-35.12874 17.7308,-50.07406 12.4382,-13.949824 35.0726,-6.79576 30.2661,14.17615 0.6148,22.26644 1.8694,44.69779 0.3109,66.95409 -2.8999,18.74246 -4.2716,37.78817 -8.3687,56.31059 -32.6058,4.33999 -65.56715,0.91057 -98.20707,4.24107 -27.80958,-0.78972 -55.62881,0.26837 -83.4309,-0.27174 -19.60738,-1.6213 -38.53299,-7.88168 -58.21309,-9.15193 8.20124,2.37174 21.11165,3.48193 5.53411,0.55625 -21.26435,-3.27245 -42.19418,-9.69061 -63.64772,-10.66301 -25.3995,-3.92272 -50.06585,-11.26301 -74.89903,-17.50654 -19.92786,-4.03894 -39.67477,-11.0563 -60.24954,-11.3775 -17.70957,-3.68028 -39.45136,-5.57504 -54.89257,-10.74285"
     id="path537" />
  <path
     style="fill:#ff00ff;stroke-width:0;paint-order:stroke fill markers;stroke:none;stroke-dasharray:none;fill-opacity:1"
     d="m 232.6693,17.097105 c 4.14472,-2.800185 8.61274,-5.75589 13.87788,-5.234313 4.88304,0.237692 4.82362,7.107585 6.87295,10.396246 3.16003,5.075263 2.77209,11.533891 6.32899,16.469806 1.87298,4.910494 7.40818,2.655049 11.55709,1.90227 7.63892,-2.706805 15.2617,-8.54207 23.75214,-6.320457 3.80958,2.19 5.41545,7.111162 7.15944,11.318305 2.4455,5.070522 1.92954,10.842783 1.96999,16.305358 -0.37581,4.71644 -4.82559,8.10567 -8.96965,9.60246 -4.05097,0.758599 -8.16849,1.197169 -12.00087,2.798459 -10.39904,1.75722 -21.18293,1.536191 -31.53569,-0.459604 -5.18786,-0.215251 -7.43114,-3.580459 -7.27186,-8.410134 -0.59218,-6.203408 0.52332,-12.448971 0.15323,-18.6343 -3.32001,-3.76488 -9.04218,-3.89442 -13.51865,-5.696517 -4.95977,-0.628691 -10.00134,-0.07806 -14.99287,-0.427636 -10.59857,-0.07355 -20.51664,6.353648 -31.20741,4.253999 -3.5466,-2.735105 -2.3168,-9.505994 -0.9037,-13.415791 3.78836,-5.919788 10.86724,-7.795692 17.14991,-9.801201 1.7116,-1.515607 3.1275,-2.0579 5.89567,-3.448447 4.03955,-0.846098 8.18533,-1.105287 12.30307,-1.198503"
     id="path597"
     data-mass="30" />
  <circle
     style="fill:#000000;fill-opacity:1;stroke:none;stroke-width:0;stroke-dasharray:none;paint-order:stroke fill markers"
     id="ball"
     cy="100.50454"
     cx="85.249382"
     r="10" />
  <path
     style="fill:#000000;fill-opacity:1;stroke:none;stroke-width:0;stroke-dasharray:none;paint-order:stroke fill markers"
     d="m 56.533803,164.21724 c 2.499475,14.67305 17.425274,23.82272 29.16787,31.41007 14.364857,10.0641 34.954847,11.43303 50.232937,1.52792 16.42772,-9.63102 22.67092,-28.54212 34.97923,-42.62394 10.86785,-14.30215 22.04098,-27.08014 34.41535,-39.62855 13.06558,-11.94172 33.27093,-12.18307 49.52161,-8.11667 12.41033,9.74453 23.22751,26.2598 41.27865,22.43405 15.60333,-5.472 27.76296,-16.30135 34.99711,-31.407666 6.06089,-12.448128 10.99894,-25.976192 15.25516,-39.483927 7.21719,-13.212131 5.39935,-35.281856 22.82505,-38.821107 16.95847,-7.882864 17.00124,12.126509 15.76151,25.360678 0.68365,16.463195 1.10915,33.462113 -3.84245,49.103756 -6.59841,14.671696 -15.3479,26.803976 -25.31368,38.825516 -10.67317,12.53321 -24.20977,23.96728 -40.75371,26.55729 -17.50091,4.04256 -33.1145,-5.36794 -49.96084,-5.33661 -12.64241,5.17981 -20.3757,14.47636 -24.21693,29.71041 -5.39594,18.52464 10.2682,38.49403 29.09384,39.37933 20.23621,4.08078 35.30527,-14.01996 54.53045,-9.44539 19.81957,5.59472 31.74677,-21.88065 37.66789,-35.41974 9.60998,-12.97761 16.95598,-25.41366 21.39519,-40.61172 5.75549,-15.12238 8.19762,-24.40408 12.16858,-37.1264 0.1879,-16.39774 0.77469,-31.109462 0.89736,-47.560184 7.11345,-13.345156 18.59222,-30.76614 33.14942,-34.332056 22.15891,-4.686979 18.64981,28.819166 27.13066,44.379197 7.36897,15.710271 8.3785,33.513472 8.7614,50.530993 0.34713,16.54684 3.48774,33.48763 -1.73933,49.79739 -2.97802,17.13972 -11.04803,34.15966 -23.33141,46.21414 -13.83859,13.94695 -31.74316,22.89613 -49.35491,30.95899 -15.10581,6.34038 -31.31429,9.64419 -47.56018,12.56306 -11.91542,0.94312 -29.18403,0.57436 -32.38571,2.28224 -25.19806,0.70555 -50.30249,3.74366 -75.57713,2.51328 -25.39209,-1.55791 -51.02699,2.25025 -76.22675,-1.62493 -22.46621,-3.72829 -45.60566,-5.645 -67.071758,-13.93893 C 74.50705,240.5863 58.649163,230.33593 47.987561,215.94914 42.675323,200.92124 27.127237,196.36484 20.568876,180.13696 11.38316,168.66969 16.106676,152.72717 13.119209,138.36069 11.792848,114.39608 21.346685,85.930211 45.76546,77.173129"
     id="path17509"
     sodipodi:nodetypes="ccccccccccccccccccccccccccccccccccccc" />
</svg>
