<?xml version="1.0" encoding="UTF-8" standalone="no"?>
<!-- Created with Inkscape (http://www.inkscape.org/) -->

<svg
   width="800"
   height="250"
   viewBox="0 0 800 250"
   version="1.1"
   id="svg5"
   sodipodi:docname="01.svg"
   inkscape:version="1.2.1 (9c6d41e, 2022-07-14)"
   inkscape:export-filename="01-out.svg"
   inkscape:export-xdpi="96"
   inkscape:export-ydpi="96"
   xmlns:inkscape="http://www.inkscape.org/namespaces/inkscape"
   xmlns:sodipodi="http://sodipodi.sourceforge.net/DTD/sodipodi-0.dtd"
   xmlns="http://www.w3.org/2000/svg"
   xmlns:svg="http://www.w3.org/2000/svg">
  <sodipodi:namedview
     id="namedview7"
     pagecolor="#ffffff"
     bordercolor="#000000"
     borderopacity="0.25"
     inkscape:showpageshadow="2"
     inkscape:pageopacity="0.0"
     inkscape:pagecheckerboard="0"
     inkscape:deskcolor="#d1d1d1"
     inkscape:document-units="px"
     showgrid="false"
     inkscape:zoom="0.74509336"
     inkscape:cx="361.02858"
     inkscape:cy="214.06713"
     inkscape:window-width="1280"
     inkscape:window-height="747"
     inkscape:window-x="0"
     inkscape:window-y="25"
     inkscape:window-maximized="0"
     inkscape:current-layer="svg5" />
  <defs
     id="defs2" />
  <path
     style="fill:#ff00ff;fill-opacity:1;stroke:none;stroke-width:0;stroke-dasharray:none;paint-order:stroke fill markers"
     d="m 399.12517,168.18904 c 10.66439,-3.3672 22.16062,-6.92141 35.70785,-6.29423 12.56409,0.28583 12.4112,8.54684 17.68413,12.50142 8.13078,6.10299 7.13261,13.86943 16.28453,19.80485 4.81918,5.90483 19.06128,3.19269 29.73644,2.28747 19.65498,-3.25493 39.26842,-10.27179 61.11437,-7.60032 9.80206,2.63346 13.93397,8.55113 18.42127,13.61021 6.29228,6.09725 4.96471,13.03837 5.06879,19.60708 -0.96696,5.6715 -12.41626,9.74702 -23.07895,11.54691 -10.42316,0.9122 -21.01756,1.43957 -30.87829,3.36511 -26.75678,2.11305 -54.50378,1.84728 -81.14148,-0.55267 -13.34839,-0.25883 -19.12036,-4.30548 -18.71053,-10.11312 -1.52368,-7.45956 1.34651,-14.96981 0.39426,-22.40764 -8.5424,-4.52723 -23.26557,-4.68301 -34.78354,-6.85002 -12.76151,-0.756 -25.7335,-0.094 -38.57673,-0.51423 -27.27017,-0.0885 -52.78941,7.64021 -80.29681,5.1154 -9.12541,-3.28894 -5.96113,-11.43089 -2.32522,-16.13241 9.74747,-7.1185 27.96146,-9.37426 44.1268,-11.78588 4.40395,-1.82251 8.04707,-2.47461 15.16958,-4.14674 10.39378,-1.01741 21.06089,-1.32909 31.65586,-1.44119"
     id="path597"
     data-mass="30" />
  <path
     style="fill:#000000;fill-opacity:1;stroke:none;stroke-width:0;stroke-dasharray:none;paint-order:stroke fill markers"
     d="m 98.657081,392.23065 c 4.677579,16.65293 32.610079,27.03719 54.585449,35.64832 26.88274,11.42208 65.41534,12.97573 94.00712,1.73409 30.74323,-10.93056 42.42691,-32.39339 65.46097,-48.37532 20.33836,-16.23198 41.24802,-30.73414 64.40571,-44.97574 24.45124,-13.55306 62.26402,-13.82697 92.67593,-9.21188 23.22499,11.05939 43.46852,29.80311 77.24985,25.46114 29.20045,-6.21035 51.95627,-18.50094 65.49443,-35.6456 11.3425,-14.12779 20.58368,-29.48123 28.54887,-44.81161 13.50642,-14.99488 10.10448,-60.97184 42.71535,-64.98865 31.73648,-8.94653 31.81652,34.69207 29.49646,49.71196 1.2794,18.68463 2.07569,37.97727 -7.19085,55.72948 -12.34842,16.6514 -28.72243,30.42072 -47.37263,44.06436 -19.97402,14.22436 -45.30674,27.20126 -76.26746,30.14075 -32.75163,4.58803 -61.97127,-6.09226 -93.49792,-6.0567 -23.6593,5.87874 -38.13157,16.4297 -45.32014,33.71933 -9.58847,19.9632 16.35775,41.40477 49.16248,44.37828 1.74354,0.15804 3.26128,4.43181 5.03926,4.48251 1.82913,0.2237 3.90291,-3.82508 5.72975,-3.79815 35.99638,0.53047 71.31116,-34.73458 96.56501,-11.08963 29.76557,29.37186 74.27891,-20.80792 82.0037,-38.1061 12.75203,-15.77519 23.66389,-29.74622 31.66775,-47.13805 9.7245,-16.11642 12.20183,-28.74346 19.63318,-43.18244 0.35164,-18.61033 19.23968,-66.7011 19.46924,-85.37156 13.31229,-15.14585 17.00403,-63.17206 44.24672,-67.21913 41.46872,-5.31941 34.9017,92.35631 50.77297,110.0159 13.79047,17.8301 15.67972,38.03554 16.39629,57.3493 0.64963,18.77955 6.52704,38.00621 -3.25502,56.5167 -5.57314,19.45243 -20.67555,38.76892 -43.66296,52.44995 -25.89787,15.82885 -59.40491,25.98557 -92.36396,35.13638 -28.26937,7.1959 -58.60231,10.9455 -89.00526,14.25823 -22.2988,1.07037 -54.61569,0.65186 -60.60739,2.59019 -47.15625,0.80075 -94.13729,4.2488 -141.43685,2.8524 -47.51937,-1.76812 -95.49313,2.55388 -142.65257,-1.84419 -42.0438,-4.23136 -85.34752,-6.40669 -125.51969,-15.81975 C 132.29265,478.90441 102.61582,467.27093 82.663439,450.94289 72.72199,433.88723 43.62493,428.71602 31.351456,410.29846 14.161087,397.28388 23.000788,379.19019 17.409971,362.8852 14.927787,335.68697 32.807066,303.38012 78.504946,293.44141"
     id="path17509"
     sodipodi:nodetypes="ccccccccccccccccscscccccccccccccccccccc" />
  <rect
     style="fill:#000000;fill-opacity:1;stroke:none;stroke-width:0;stroke-dasharray:none;paint-order:stroke fill markers"
     id="hole"
     width="10.297148"
     height="2.9420421"
     x="492.30173"
     y="462.39096"
     data-kind="hole" />
  <rect
     style="fill:#000000;fill-opacity:1;stroke:none;stroke-width:0;stroke-dasharray:none;paint-order:stroke fill markers"
     id="rect17680"
     width="2.9030321"
     height="29.756079"
     x="496.41849"
     y="434.72906" />
  <path
     style="fill:#000000;fill-opacity:1;stroke:none;stroke-width:0;stroke-dasharray:none;paint-order:stroke fill markers"
     d="m 498.19332,435.71207 c 3.99864,1.6097 6.65273,5.321 9.20764,8.23822 -3.3246,1.09825 -7.11639,2.71186 -9.81357,4.74122 -0.0776,0.0611 -0.34403,0.28433 -0.34075,0.0375"
     id="path17684"
     sodipodi:nodetypes="cccc" />
  <path
     style="fill:#000000;fill-opacity:1;stroke:none;stroke-width:0;stroke-dasharray:none;paint-order:stroke fill markers"
     id="path17820"
     sodipodi:type="arc"
     sodipodi:cx="429.47638"
     sodipodi:cy="18.118534"
     sodipodi:rx="33.552841"
     sodipodi:ry="26.171217"
     sodipodi:start="0"
     sodipodi:end="0.77325996"
     sodipodi:arc-type="slice"
     d="m 463.02922,18.118534 a 33.552841,26.171217 0 0 1 -9.54117,18.27986 l -24.01167,-18.27986 z" />
</svg>
