<?xml version="1.0" encoding="UTF-8" standalone="no"?>
<!-- Created with Inkscape (http://www.inkscape.org/) -->

<svg
   width="800"
   height="250"
   viewBox="0 0 800 250"
   version="1.1"
   id="svg5"
   sodipodi:docname="01.svg"
   inkscape:version="1.2.1 (9c6d41e, 2022-07-14)"
   inkscape:export-filename="01-out.svg"
   inkscape:export-xdpi="96"
   inkscape:export-ydpi="96"
   xmlns:inkscape="http://www.inkscape.org/namespaces/inkscape"
   xmlns:sodipodi="http://sodipodi.sourceforge.net/DTD/sodipodi-0.dtd"
   xmlns="http://www.w3.org/2000/svg"
   xmlns:svg="http://www.w3.org/2000/svg">
  <sodipodi:namedview
     id="namedview7"
     pagecolor="#ffffff"
     bordercolor="#000000"
     borderopacity="0.25"
     inkscape:showpageshadow="2"
     inkscape:pageopacity="0.0"
     inkscape:pagecheckerboard="0"
     inkscape:deskcolor="#d1d1d1"
     inkscape:document-units="px"
     showgrid="false"
     inkscape:zoom="4.0787995"
     inkscape:cx="512.40567"
     inkscape:cy="437.99652"
     inkscape:window-width="1280"
     inkscape:window-height="747"
     inkscape:window-x="0"
     inkscape:window-y="25"
     inkscape:window-maximized="0"
     inkscape:current-layer="svg5" />
  <defs
     id="defs2" />
  <path
     style="fill:#008a13;fill-opacity:1;stroke-width:10.5;paint-order:stroke fill markers"
     d="m 108.17815,510.39908 c 11.67651,-2.49094 30.12555,1.20473 31.28906,9.29998 3.05569,8.52668 8.70232,16.92383 8.41602,26.69981 3.87941,10.92998 -0.20326,27.65416 6.34064,35.69572 3.06588,4.08434 17.34852,19.74837 24.44122,19.48922 19.70753,11.9304 38.43339,-1.42785 48.08225,-18.79513 13.09783,-13.91168 40.61705,-18.58326 57.41244,-9.98477 12.97442,9.92216 21.7839,24.25034 32.85557,35.15158 9.83238,9.75357 29.29045,17.81812 39.83214,4.18256 11.97148,-12.97044 23.13426,-26.53752 37.33037,-37.16692 16.26606,-14.6109 40.95116,-24.97368 61.84542,-14.10501 16.37544,5.6739 21.98458,30.09468 38.90225,28.18909 19.50998,0.33998 44.51688,4.52295 57.57508,-13.75511 14.4064,-12.09975 7.4281,-35.12874 17.7308,-50.07406 12.4382,-13.94983 35.0726,-6.79576 30.2661,14.17615 0.6148,22.26644 1.8694,44.69779 0.3109,66.95409 -2.8999,18.74246 -4.2716,37.78817 -8.3687,56.31059 -32.6058,4.33999 -65.56719,0.91057 -98.20711,4.24107 -27.80958,-0.78972 -55.62881,0.26837 -83.4309,-0.27174 -19.60738,-1.6213 -38.53299,-7.88168 -58.21309,-9.15193 8.20124,2.37174 21.11165,3.48193 5.53411,0.55625 -21.26435,-3.27245 -42.19418,-9.69061 -63.64772,-10.66301 -25.3995,-3.92272 -50.06585,-11.26301 -74.89903,-17.50654 -19.92786,-4.03894 -39.67477,-11.0563 -60.24954,-11.3775 -17.70957,-3.68028 -39.45136,-5.57504 -54.89257,-10.74285"
     id="path537" />
  <path
     style="fill:#ff00ff;fill-opacity:1;stroke:none;stroke-width:0;stroke-dasharray:none;paint-order:stroke fill markers"
     d="m 214.8794,35.93347 c 4.14472,-2.80018 8.61274,-5.75589 13.87788,-5.23431 4.88304,0.23769 4.82362,7.10758 6.87295,10.39624 3.16003,5.07527 2.77209,11.53389 6.32899,16.46981 1.87298,4.91049 7.40818,2.65505 11.55709,1.90227 7.63892,-2.70681 15.2617,-8.54207 23.75214,-6.32046 3.80958,2.19 5.41545,7.11116 7.15944,11.31831 2.4455,5.07052 1.92954,10.84278 1.96999,16.30536 -0.37581,4.71644 -4.82559,8.10567 -8.96965,9.60246 -4.05097,0.75859 -8.16849,1.19716 -12.00087,2.79845 -10.39904,1.75722 -21.18293,1.5362 -31.53569,-0.4596 -5.18786,-0.21525 -7.43114,-3.58046 -7.27186,-8.41013 -0.59218,-6.20341 0.52332,-12.44897 0.15323,-18.6343 -3.32001,-3.76488 -9.04218,-3.89442 -13.51865,-5.69652 -4.95977,-0.62869 -10.00134,-0.0781 -14.99287,-0.42764 -10.59857,-0.0736 -20.51664,6.35365 -31.20741,4.254 -3.5466,-2.7351 -2.3168,-9.50599 -0.9037,-13.41579 3.78836,-5.91979 10.86724,-7.79569 17.14991,-9.8012 1.7116,-1.51561 3.1275,-2.0579 5.89567,-3.44845 4.03955,-0.84609 8.18533,-1.10528 12.30307,-1.1985"
     id="path597"
     data-mass="30" />
  <circle
     style="fill:#000000;fill-opacity:1;stroke:none;stroke-width:0;stroke-dasharray:none;paint-order:stroke fill markers"
     id="ball"
     cy="400.83997"
     cx="197.22112"
     r="10"
     data-kind="ball" />
  <path
     style="fill:#000000;fill-opacity:1;stroke:none;stroke-width:0;stroke-dasharray:none;paint-order:stroke fill markers"
     d="m 98.657081,392.23065 c 4.677579,16.65293 32.610079,27.03719 54.585449,35.64832 26.88274,11.42208 65.41534,12.97573 94.00712,1.73409 30.74323,-10.93056 42.42691,-32.39339 65.46097,-48.37532 20.33836,-16.23198 41.24802,-30.73414 64.40571,-44.97574 24.45124,-13.55306 62.26402,-13.82697 92.67593,-9.21188 23.22499,11.05939 43.46852,29.80311 77.24985,25.46114 29.20045,-6.21035 51.95627,-18.50094 65.49443,-35.6456 11.3425,-14.12779 20.58368,-29.48123 28.54887,-44.81161 13.50642,-14.99488 10.10448,-60.97184 42.71535,-64.98865 31.73648,-8.94653 31.81652,34.69207 29.49646,49.71196 1.2794,18.68463 2.07569,37.97727 -7.19085,55.72948 -12.34842,16.6514 -28.72243,30.42072 -47.37263,44.06436 -19.97402,14.22436 -45.30674,27.20126 -76.26746,30.14075 -32.75163,4.58803 -61.97127,-6.09226 -93.49792,-6.0567 -23.6593,5.87874 -38.13157,16.4297 -45.32014,33.71933 -9.58847,19.9632 16.35775,41.40477 49.16248,44.37828 1.74354,0.15804 3.26128,4.43181 5.03926,4.48251 1.82913,0.2237 3.90291,-3.82508 5.72975,-3.79815 35.99638,0.53047 71.31116,-34.73458 96.56501,-11.08963 29.76557,29.37186 74.27891,-20.80792 82.0037,-38.1061 12.75203,-15.77519 23.66389,-29.74622 31.66775,-47.13805 9.7245,-16.11642 12.20183,-28.74346 19.63318,-43.18244 0.35164,-18.61033 19.23968,-66.7011 19.46924,-85.37156 13.31229,-15.14585 17.00403,-63.17206 44.24672,-67.21913 41.46872,-5.31941 34.9017,92.35631 50.77297,110.0159 13.79047,17.8301 15.67972,38.03554 16.39629,57.3493 0.64963,18.77955 6.52704,38.00621 -3.25502,56.5167 -5.57314,19.45243 -20.67555,38.76892 -43.66296,52.44995 -25.89787,15.82885 -59.40491,25.98557 -92.36396,35.13638 -28.26937,7.1959 -58.60231,10.9455 -89.00526,14.25823 -22.2988,1.07037 -54.61569,0.65186 -60.60739,2.59019 -47.15625,0.80075 -94.13729,4.2488 -141.43685,2.8524 -47.51937,-1.76812 -95.49313,2.55388 -142.65257,-1.84419 -42.0438,-4.23136 -85.34752,-6.40669 -125.51969,-15.81975 C 132.29265,478.90441 102.61582,467.27093 82.663439,450.94289 72.72199,433.88723 43.62493,428.71602 31.351456,410.29846 14.161087,397.28388 23.000788,379.19019 17.409971,362.8852 14.927787,335.68697 32.807066,303.38012 78.504946,293.44141"
     id="path17509"
     sodipodi:nodetypes="ccccccccccccccccscscccccccccccccccccccc" />
  <rect
     style="fill:#000000;fill-opacity:1;stroke:none;stroke-width:0;stroke-dasharray:none;paint-order:stroke fill markers"
     id="hole"
     width="10.297148"
     height="2.9420421"
     x="492.30173"
     y="462.39096"
     data-kind="hole" />
</svg>
