<svg width="1213.338" height="792.293" style="position:absolute;left:-999999px;right:-999999px" viewBox="0 0 1213.338 792.293"><path d="M79.51 671.85H89.81V674.8H79.5z" data-kind="hole"/><path d="M83.63 644.19H86.53V673.94H83.63z"/><path d="M85.4 645.17C89.4 646.78 92.06 650.5 94.61 653.41 91.29 654.51 87.49 656.12 84.8 658.15 84.72 658.21 84.45 658.44 84.46 658.2"/><circle cx="274.541" cy="366.67" r="5" data-kind="ball" data-mass="30"/><path d="M708.78 422.63C730.6 393.03 738.9 363.49 748.67 327.56 745.2 304.92 781.08 245.98 785.36 296.94 786.6 367.74 800.23 442.83 801.79 506.48 802.3 557.74 704.55 545.04 676.26 555.26 622.45 573.72 564.53 567.94 508.9 566.77 479.95 570.23 482.88 571.57 465.08 571.61 414.58 570.95 363.67 572.97 313.48 570.47 293.85 569.23 259.4 570.6 247.27 563.55 206.6 567.88 184.5 541.93 172.28 508.76 156.34 482.26 123.65 465.7 96.32 491.07 76.02 511.42 63.92 552.1 61.48 584.92 60.5 614.99 53.18 654.88 81.35 669.9 282.84 642.84 531.63 644.63 700.23 658.77 781.57 659.57 982.16 731.02 979.62 637.67 992.3 611.48 873.16 585.33 865.12 567.64 846.13 510.25 821.78 446.6 820.19 386.02 818.6 352.96 818.62 320.87 825.24 292.11 825.8 268.19 862.3 244.4 877.3 276.2 868.63 355.32 916.76 356.1 933.73 412.96 1023.79 445.85 1198.79 207.49 1208.87 284.9 1210.28 366.61 1216.69 695.86 1211.06 747.6 1191.53 800.59 309.89 820.06 36.42 728.79-13.1 681.25-5.1 514.09 19.12 463.64 29.27 428.86 47.98 398.88 59.03 365.35 70.86 338.58 82.2 304.84 111.68 292.67 152.57 280.85 186.04 310.2 211.46 338.34 233.93 352.69 246.14 389.83 282.06 386.2 451.42 355.68 533.81 647.28 708.78 422.63z"/><ellipse cx="583.33" cy="13.744" rx="20.616" ry="13.744"/></svg>