<svg width="1123.205" height="579.53" style="position:absolute;left:-999999px;right:-999999px" viewBox="0 0 1123.205 579.53"><path d="M1067.11 551.3H1077.41V554.24H1067.11z" data-kind="hole"/><path d="M1071.23 523.64H1074.13V553.39H1071.23z"/><path d="M1073 524.62C1077 526.23 1079.67 529.94 1082.22 532.86 1078.9 533.96 1075.1 535.57 1072.4 537.6 1072.32 537.66 1072.06 537.88 1072.06 537.64"/><circle cx="174.494" cy="412.178" r="5" data-kind="ball" data-mass="30"/><path d="M62.33 165.8C26.33 205.5-6.65 332.33 51.74 389.27 118 452.36 289.13 454.05 304.84 341.8 322.4 243.36 287.62 203.92 232.13 212.6 217.77 214.84 226.77 195.22 226.77 195.22 322.7 182.3 331.12 272.87 342.79 328.4 357.37 389.36 379.87 473.34 471.4 501.87 517.17 522.25 580.96 510.85 636.75 508.73 662.16 499.58 694.3 489.88 708.88 469.06 730.73 436.54 725.85 396.82 711.34 363.52 697.84 335 673.3 305.1 656.58 283.3 662.7 282.3 680.58 280.23 690.44 281.5 733.14 278.25 770.78 301.65 802.66 326.59 822.16 342.69 841.85 385.9 852.96 417.12 864.2 452.83 867.09 490.5 871.19 527.42 892.25 511.45 935.95 490.89 943.24 418.57 959.74 245.6 967.39 244.27 977.63 407.77 984.62 447.72 985.89 456.1 1004.64 492.5 1019.66 522.26 1071.77 548.11 1094.58 561.38 1095.7 561.93 1082.81 33.16 1100.3 32.55 1109.3 40.26 1121.3 25.1 1122.6 38.96 1124.14 55.64 1122.5 461.48 1120.46 579.53L102.11 573.23C97.5 539.18 137.6 471.59 113.87 449.97 78.4 436.98 67.57 442.6 16.37 384.29-21.74 328.13 14.07 222.9 48.83 158.87"/><circle cx="513.341" cy="308.781" r="93.395"/><path d="M537.02 103.81C529.86 108.78 520.72 109.12 512.32 109.37 504.28 107.13 499.13 102.57 494.7 98.22 491.34 104.42 482.82 104.34 477 108.22 470.14 113.55 460.9 112.64 452.87 114.5 444.87 114.22 434.73 113.87 429.78 106.63 423.35 102.12 420.53 95.74 419.48 88.6 416.43 91.7 412.72 91.75 407.44 93.22 399.37 94.12 390.54 96.88 382.74 93.65 374.96 90.05 365.74 86.4 363.08 77.38 358.48 71.31 359.82 62.51 363.78 56.45 376.18 51.07 390.09 46.63 403.73 49.09 403.86 46.5 399.61 35.4 401.24 29.65 402.6 20.95 410.78 15.14 418.72 12.72 443.74 1.7 491.12-7.46 531.12 8.89 540.7 7.82 548.97 14.14 554.7 21.06 559 29 560.47 38.39 560.4 47.33 559.52 52.73 551.01 55.08 557.01 54.15 568.87 52.6 583.54 55.6 588.93 67.57 591.55 74.4 594.34 83.37 587.45 88.59 581.7 95.69 571.97 96.02 563.62 95.36"/></svg>