<svg width="1132.279" height="845.996" style="position:absolute;left:-999999px;right:-999999px" viewBox="0 0 1132.279 845.996"><path d="M961.72 150.22H972.02V153.16H961.72z" data-id="hole" data-kind="hole"/><path d="M965.84 122.56H968.74V152.32H965.84z" data-id="flagpole"/><path d="M967.61 123.54C971.61 125.15 974.27 128.86 976.82 131.78 973.5 132.88 969.7 134.5 967.01 136.52 966.93 136.58 966.66 136.81 966.67 136.56" data-id="flag"/><circle cx="1111.239" cy="614.254" r="5" data-kind="ball" data-mass="30"/><path d="M.21 401.28C.54 377.83 74.45 372.91 77.8 392.54 97.44 471.68 99.39 654.1 219.04 656.62 282.9 652.67 257.8 584.94 300.6 569.07 346.94 565.97 353.15 681.07 393.05 720.08 477.26 796.71 763.86 786.38 908.92 726.22 936.83 717.32 989.41 709.32 1007.2 732.36 1031.17 749.51 1087.2 729.43 1094.07 641.16 1102.84 641.5 1124.82 643.96 1132.13 641.98 1132.6 699.7 1131.8 792.43 1132.06 834.72 1092.1 838.78 37.43 849.32 0 844.95" data-id="ground"/><path d="M830.82 138C839.75 138.11 838.62 152.16 845.42 152.25 880.38 152.73 954.36 151.36 984.41 151.31 995.2 149.84 988.96 138.35 1000.04 138.5 1001.57 157.5 1001.4 185.85 1001.48 207.1 974 205.9 850.94 210.26 833.08 208.6" data-id="holeplatform"/><path d="M455.48 318.74C464.4 318.88 463.28 333.25 470.08 333.01 489.05 332.36 495.73 351.66 511.74 351.54 530.3 351.41 535.53 334.58 548.33 333.73 562.76 332.77 591.48 332.59 609.06 332.07 619.86 330.59 613.61 319.1 624.69 319.24 626.22 338.27 626.07 366.6 626.13 387.85 598.65 386.64 475.6 391.01 457.73 389.35" data-id="midplatform"/><path d="M441.73.55C390.4 39.14 515.92 37.95 468 0"/></svg>